<svg width="108" height="110" viewBox="0 0 108 110" fill="none" xmlns="http://www.w3.org/2000/svg">
<g clip-path="url(#clip0_156_160)">
<path d="M53.9324 -0.0356031C24.4828 0.105831 0.729597 24.6346 0.85794 54.7602C0.996154 84.8857 24.9665 109.202 54.4062 109.071C83.8459 108.93 107.609 84.4008 107.481 54.2752C107.342 24.1396 83.3721 -0.166935 53.9324 -0.0356031ZM47.1796 51.8405C41.9176 51.8405 37.6428 47.4763 37.6428 42.0917C37.6428 36.7071 41.9077 32.3428 47.1796 32.3428C52.4416 32.3428 56.7065 36.7071 56.7065 42.0917C56.7065 47.4763 52.4416 51.8405 47.1796 51.8405ZM54.7814 62.3875L54.8307 62.3269L54.8801 62.2663C57.6049 64.0645 60.7049 64.6909 63.8048 64.7919C66.9146 64.8727 70.0738 64.6404 73.1935 63.9938C76.3034 63.3371 79.3638 62.3572 82.3157 61.1045C83.9743 60.4074 85.623 59.6396 87.1927 58.7405C87.2026 58.7304 87.2125 58.7304 87.2223 58.7203C88.1997 58.1142 89.1573 57.4878 90.0952 56.8312C90.3025 56.6796 90.5 56.5281 90.6876 56.3664L90.7073 56.3967L90.7863 56.4978C88.3873 58.7304 85.5341 60.3872 82.6316 61.8521C79.6995 63.2664 76.639 64.4282 73.4798 65.2667C70.3305 66.0951 67.043 66.7316 63.716 66.4184C60.4383 66.1052 56.9829 64.9333 54.7814 62.3875ZM79.2454 51.8405C79.2454 50.6687 80.1635 49.7291 81.2988 49.719C82.4441 49.719 83.3622 50.6586 83.3721 51.8203C83.3721 52.9821 82.4539 53.9419 81.3186 53.9419C80.1833 53.952 79.2454 53.0124 79.2454 51.8405ZM62.9163 104.171C60.853 89.4015 73.4502 74.9449 80.5584 67.5499C82.1676 65.8729 84.6654 63.5594 86.9854 61.1045C96.2063 52.285 98.0426 41.7381 79.1664 36.4646C75.5926 35.4038 71.8805 33.8986 68.129 32.3832C68.0105 32.0296 67.8723 31.6962 67.7242 31.3831C67.2898 30.6254 66.5395 29.7465 65.3943 28.7564C62.936 26.5743 58.3355 26.6349 54.3569 27.5946C49.9537 26.5339 45.6197 26.1601 41.4437 27.1804C23.1895 32.3226 20.2573 41.435 19.5465 52.4164C18.579 64.2767 18.0163 73.1163 13.623 83.2188C8.14383 75.1267 4.91553 65.3273 4.87604 54.7399C4.75757 26.8875 26.7238 4.19733 53.9521 4.0761C81.1804 3.95487 103.344 26.4328 103.472 54.2954C103.571 79.1778 86.0574 99.9384 62.9163 104.171Z" fill="white"/>
<path d="M53.8834 42.1826C53.8834 45.971 50.8822 49.0421 47.18 49.0421C43.4778 49.0421 40.4766 45.971 40.4766 42.1826C40.4766 38.3941 43.4778 35.323 47.18 35.323C50.8822 35.323 53.8834 38.3941 53.8834 42.1826Z" fill="white"/>
</g>
<defs>
<clipPath id="clip0_156_160">
<rect width="106.623" height="109.107" fill="white" transform="translate(0.957031 0.0654297)"/>
</clipPath>
</defs>
</svg>
