<svg width="107" height="110" viewBox="0 0 107 110" fill="none" xmlns="http://www.w3.org/2000/svg">
<path fill-rule="evenodd" clip-rule="evenodd" d="M42.2224 10.1032C36.678 13.1582 31.5602 15.7768 31.5602 15.7768C31.5602 16.2132 45.6344 23.196 46.0608 23.196C46.4873 23.196 47.7668 22.3232 49.8993 21.4503L53.3112 19.7046L56.7231 21.8867L60.135 23.6324L66.1059 21.0139C74.6357 17.0861 75.9152 16.6496 75.4887 16.2132C75.4887 16.2132 72.0768 14.4675 63.547 9.6668C59.2821 7.48467 55.4436 5.30254 54.5907 4.86611C54.1642 4.86611 53.3112 4.42969 53.3112 4.42969C53.3112 4.42969 48.1933 7.04825 42.2224 10.1032ZM16.633 23.6324L10.6621 26.6874V40.6531C10.6621 48.5088 10.6621 54.6187 10.6621 54.6187C10.6621 54.6187 13.6475 53.3094 17.486 51.5637L23.8833 48.5088V34.5431L26.8688 36.2888C29.4277 37.5981 31.5602 38.9074 34.1191 40.2166L38.384 42.3988L40.09 41.5259C41.3694 41.0895 42.2224 40.6531 43.5019 39.7802C44.3549 39.3438 46.4873 38.4709 48.1933 37.5981C49.8993 36.7252 51.6052 35.8524 52.0317 35.8524C52.4582 35.416 48.6198 33.6703 37.9575 27.9967C29.8542 23.6324 23.4568 20.5775 23.0303 20.5775C23.0303 20.5775 20.0449 21.8867 16.633 23.6324ZM76.7682 24.5053C72.5033 26.251 69.0914 27.9967 69.0914 27.9967C69.0914 27.9967 71.2238 29.306 74.2092 31.0517C76.7682 32.7974 79.3271 34.1067 79.3271 34.1067C79.3271 34.1067 76.7682 35.416 73.7827 36.7252C70.7973 38.0345 63.1205 41.5259 57.1496 44.5809L36.2516 54.1823C30.7072 56.8008 26.0158 58.983 25.5893 59.4194C14.927 64.2201 11.9416 65.9658 11.5151 65.9658C11.0886 66.4022 11.0886 67.7115 11.0886 74.6943V82.9864L16.633 85.605L21.3244 88.66L29.0012 85.1686C33.2661 83.4229 36.6781 81.6772 36.6781 81.6772C36.6781 81.6772 35.8251 81.2407 34.9721 80.3679C34.1191 79.9314 31.9867 78.6222 30.7072 77.7493C29.4277 76.8765 27.7217 76.0036 27.7217 76.0036C27.2953 76.0036 27.2953 75.5672 27.2953 75.5672C27.2953 75.5672 30.7072 73.8215 34.5456 72.0758C42.2224 68.5844 48.6198 65.5294 61.4145 59.8558C67.3854 57.2373 72.9298 54.6187 78.9006 52.0002C84.0185 49.818 89.9894 46.763 92.1219 45.8902L95.9603 44.1445V35.8524V27.5603L90.4159 24.5053C87.4305 22.7596 84.8715 21.4503 84.445 21.4503C84.445 21.0139 80.6066 22.7596 76.7682 24.5053ZM93.8278 55.0551C92.9748 55.4916 91.2689 56.3644 90.4159 56.8008C89.1364 57.2373 87.004 58.5466 85.7245 58.983L83.1656 60.2923V67.7115C83.1656 71.6393 83.1656 75.1308 82.7391 75.1308C82.3126 75.1308 77.1947 72.5122 72.0768 69.4572C68.2384 67.2751 68.2384 67.2751 67.3854 67.7115C66.9589 68.1479 63.9735 69.4572 60.5615 70.7665C57.1496 72.0758 54.5907 73.385 54.5907 73.8215C54.5907 73.8215 60.988 77.3129 69.0914 81.6772L83.592 89.5328L89.9894 86.0414C93.4013 84.2957 96.3868 82.55 96.3868 82.55C96.8133 82.1136 96.8133 54.6187 96.3868 54.6187C95.5338 54.1823 94.6808 54.6187 93.8278 55.0551ZM59.2821 87.3507C58.0026 87.7871 57.1496 88.2235 55.8701 88.66C52.4582 89.9692 53.3112 89.9693 49.4728 88.2235C46.9138 86.9143 45.6344 86.4778 45.2079 86.9143C44.7814 86.9143 41.7959 88.66 38.384 89.9693C34.9721 91.715 31.9867 93.0242 31.9867 93.0242C30.7072 93.0242 32.8396 94.3335 42.2224 99.1342L53.3112 104.808L58.0026 102.626C60.5615 101.316 65.6794 98.6978 69.5178 96.9521C73.3563 95.2064 76.3417 93.4607 76.3417 93.4607C76.3417 93.4607 73.3563 91.715 69.5178 89.9693L62.694 86.4778L59.2821 87.3507Z" fill="white"/>
</svg>
