<svg width="38" height="33" viewBox="0 0 38 33" fill="none" xmlns="http://www.w3.org/2000/svg">
<path fill-rule="evenodd" clip-rule="evenodd" d="M2.61147 14.0218C12.8086 9.42519 19.6084 6.3948 23.0105 4.93078C32.7246 0.750497 34.7431 0.0242843 36.0587 0.000251606C36.3481 -0.00497905 36.9951 0.0692404 37.4141 0.421108C38.0358 0.943043 38.0394 2.07597 37.9704 2.8258C37.4439 8.54842 35.1662 22.4355 34.0073 28.8449C33.5169 31.5569 32.5515 32.4664 31.6169 32.5553C29.5856 32.7487 28.0431 31.1663 26.0757 29.8321C22.9971 27.7441 21.2578 26.4443 18.2694 24.4069C14.8159 22.0523 17.0547 20.7582 19.0229 18.6432C19.538 18.0897 28.4879 9.66707 28.6611 8.90297C28.6829 8.8074 28.7029 8.45115 28.4984 8.26313C28.2938 8.07511 27.992 8.13929 27.7742 8.19047C27.4654 8.26299 22.5473 11.6263 13.0198 18.2803C11.6238 19.2721 10.3594 19.7553 9.2265 19.73C7.9775 19.7022 5.57514 18.9994 3.78915 18.3987C1.59858 17.6621 -0.142457 17.2724 0.00921018 16.0213C0.0881866 15.3695 0.955561 14.7031 2.61147 14.0218Z" fill="white"/>
</svg>
