<svg width="118" height="160" viewBox="0 0 118 160" fill="none" xmlns="http://www.w3.org/2000/svg">
<g clip-path="url(#clip0_156_166)">
<path d="M46.7712 30.7295C45.3166 30.5036 45.2551 30.4769 45.9398 30.3717C47.2517 30.1694 50.3494 30.445 52.4842 30.9532C57.4677 32.1397 62.0024 35.1791 66.843 40.5769L68.129 42.011L69.9685 41.7148C77.7187 40.4674 85.6029 41.4587 92.1973 44.5098C94.0114 45.3492 96.8717 47.0202 97.229 47.4496C97.3431 47.5863 97.5522 48.4673 97.6936 49.4072C98.1834 52.6591 97.9384 55.1518 96.9452 57.0134C96.4049 58.0266 96.3748 58.3476 96.738 59.2147C97.0281 59.9067 97.8366 60.4187 98.6373 60.4177C100.276 60.4154 102.04 57.7621 102.857 54.0703L103.182 52.604L103.825 53.3334C107.353 57.3364 110.123 62.7955 110.599 66.6812L110.723 67.6942L110.13 66.7732C109.11 65.1885 108.084 64.1094 106.771 63.2393C104.405 61.6708 101.902 61.1371 95.2745 60.7872C89.2886 60.4713 85.9009 59.9593 82.5416 58.8621C76.8263 56.9957 73.9451 54.5102 67.156 45.5888C64.1405 41.6265 62.2766 39.434 60.4226 37.6684C56.2098 33.6567 52.0701 31.5527 46.7712 30.7295Z" fill="white"/>
<path d="M98.5798 39.5768C98.7305 36.9217 99.09 35.17 99.8128 33.5708C100.099 32.9376 100.367 32.4194 100.408 32.4194C100.45 32.4194 100.325 32.8868 100.132 33.4578C99.6064 35.0102 99.5203 37.1331 99.882 39.6034C100.342 42.7376 100.603 43.1897 103.91 46.5755C105.462 48.1635 107.266 50.1662 107.92 51.0261L109.11 52.5897L107.92 51.4722C106.466 50.1059 103.121 47.4411 102.382 47.06C101.886 46.8047 101.813 46.8089 101.507 47.1136C101.225 47.3944 101.166 47.8161 101.127 49.8104C101.066 52.9183 100.643 54.9133 99.6223 56.9081C99.0703 57.9869 98.9832 57.7567 99.4829 56.539C99.8559 55.6298 99.8937 55.23 99.891 52.2211C99.8853 46.176 99.1687 44.7226 94.9663 42.2328C93.9016 41.6022 92.1475 40.6925 91.0684 40.2114C89.9891 39.7304 89.1318 39.3112 89.1629 39.28C89.2819 39.1613 93.3803 40.3593 95.0298 40.9947C97.4833 41.9401 97.8884 42.0625 98.1864 41.9486C98.3861 41.8723 98.4827 41.2895 98.5798 39.5768Z" fill="white"/>
<path d="M49.5967 49.9188C46.6434 45.8468 44.8164 39.6031 45.2118 34.9358L45.3343 33.4915L46.0063 33.6144C47.2689 33.8451 49.4453 34.6565 50.4646 35.2765C53.2615 36.9777 54.4723 39.2176 55.7043 44.9695C56.0651 46.654 56.5384 48.5605 56.7563 49.2061C57.1071 50.245 58.4322 52.6717 59.5096 54.2477C60.2856 55.3826 59.7702 55.9205 58.0547 55.7654C55.4349 55.5285 51.8861 53.0756 49.5967 49.9188Z" fill="white"/>
<path d="M94.998 80.2259C81.1966 74.6603 76.3359 69.8294 76.3359 61.6783C76.3359 60.4789 76.3773 59.4973 76.4273 59.4973C76.4776 59.4973 77.0117 59.8933 77.614 60.3771C80.4126 62.6252 83.5466 63.5856 92.2225 64.8531C97.3277 65.5993 100.201 66.2018 102.851 67.0821C111.275 69.8801 116.486 75.5583 117.729 83.2925C118.09 85.5398 117.879 89.754 117.293 91.9752C116.831 93.7296 115.42 96.8916 115.046 97.0128C114.942 97.0465 114.841 96.6485 114.814 96.1066C114.672 93.2026 113.207 90.3752 110.746 88.2573C107.948 85.8493 104.189 83.9321 94.998 80.2259Z" fill="white"/>
<path d="M85.3081 82.5378C85.135 81.5074 84.8353 80.1912 84.6416 79.6131L84.2895 78.5623L84.9436 79.2977C85.8486 80.3151 86.564 81.6174 87.1703 83.3515C87.6329 84.6752 87.6849 85.0687 87.6814 87.2198C87.6779 89.3315 87.6202 89.7742 87.1929 90.9654C86.5192 92.8442 85.6831 94.1764 84.28 95.6063C81.759 98.1761 78.5177 99.5988 73.8405 100.189C73.0273 100.292 70.6577 100.464 68.5745 100.573C63.3241 100.846 59.8687 101.411 56.7638 102.503C56.3174 102.66 55.9187 102.756 55.8784 102.715C55.7527 102.59 57.8668 101.328 59.6129 100.485C62.0749 99.2976 64.5257 98.6494 70.0171 97.7335C72.7298 97.2809 75.5311 96.732 76.2425 96.5135C82.9601 94.4507 86.4131 89.1273 85.3081 82.5378Z" fill="white"/>
<path d="M91.635 93.7913C89.8015 89.8432 89.3805 86.0315 90.3849 82.4764C90.4924 82.0966 90.6652 81.7856 90.7693 81.7856C90.8731 81.7856 91.3059 82.0201 91.7307 82.3063C92.5757 82.8762 94.2703 83.8355 98.7854 86.3011C104.42 89.3776 107.632 91.7599 109.816 94.4816C111.729 96.8654 112.913 99.5801 113.483 102.891C113.806 104.766 113.617 109.278 113.136 111.166C111.621 117.12 108.101 121.796 103.079 124.525C102.343 124.925 101.683 125.254 101.612 125.255C101.54 125.256 101.808 124.574 102.207 123.738C103.897 120.201 104.089 116.761 102.812 112.932C102.03 110.587 100.435 107.726 97.2163 102.891C93.4736 97.2699 92.5558 95.7736 91.635 93.7913Z" fill="white"/>
<path d="M39.7963 115.093C44.9179 110.762 51.2902 107.685 57.0951 106.741C59.5967 106.334 63.764 106.495 66.0805 107.089C69.7939 108.041 73.1154 110.172 74.8428 112.712C76.5312 115.195 77.2555 117.358 78.0097 122.171C78.307 124.069 78.6307 125.976 78.7285 126.407C79.2947 128.901 80.397 130.895 81.7624 131.896C83.9316 133.486 87.6666 133.586 91.3407 132.15C91.9644 131.906 92.5057 131.738 92.5438 131.776C92.677 131.908 90.827 133.149 89.5216 133.802C87.7655 134.681 86.3689 135.02 84.5132 135.02C81.1482 135.02 78.3543 133.306 76.023 129.81C75.5644 129.122 74.5331 127.061 73.7316 125.23C71.2704 119.608 70.0548 117.895 67.197 116.02C64.7098 114.389 61.5024 114.097 59.0895 115.282C55.9199 116.838 55.0355 120.895 57.3057 123.466C58.2078 124.488 59.8905 125.369 61.2664 125.54C63.8401 125.861 66.0521 123.9 66.0521 121.297C66.0521 119.607 65.4035 118.643 63.7709 117.905C61.541 116.897 59.1443 118.075 59.1557 120.173C59.1607 121.068 59.5496 121.63 60.445 122.035C61.0194 122.296 61.0328 122.316 60.5642 122.219C58.5183 121.794 58.039 119.324 59.6841 117.684C61.659 115.715 65.7431 116.584 67.1457 119.271C67.7348 120.4 67.8033 122.648 67.2896 124.006C66.1398 127.044 62.7877 128.642 59.387 127.772C57.0719 127.18 56.1293 126.539 53.3379 123.659C48.4874 118.655 46.6043 117.685 39.6115 116.592L38.2715 116.383L39.7963 115.093Z" fill="white"/>
<path fill-rule="evenodd" clip-rule="evenodd" d="M3.21957 2.99328C19.4181 22.6841 44.3911 53.3416 45.6311 55.0581C46.6547 56.4753 46.2695 57.7493 44.5159 58.7478C43.5406 59.3032 41.5355 59.8658 40.5316 59.8658C39.3962 59.8658 38.1172 59.3182 37.1857 58.4331C36.5272 57.8077 33.87 53.8337 27.7357 44.3005C23.0421 37.0063 19.1141 30.9552 19.007 30.854C18.7593 30.6196 18.7635 30.6275 27.2572 45.8487C32.5904 55.4065 34.3909 58.7855 34.3909 59.2374C34.3909 60.1566 34.1406 60.6396 33.0085 61.9044C31.1212 64.0132 30.2776 66.3825 29.6686 71.2862C28.9856 76.7832 27.0659 80.6662 21.7456 87.3118C18.6313 91.202 18.1216 91.915 17.3358 93.4831C16.3458 95.4574 16.0737 96.5634 15.9634 99.0566C15.8469 101.693 16.0739 103.396 16.8782 105.916C17.582 108.123 18.3168 109.58 20.1954 112.494C21.8166 115.009 22.7503 116.878 22.7503 117.609C22.7503 118.191 22.861 118.191 25.3733 117.623C31.3851 116.264 36.267 113.872 39.0125 110.941C40.7116 109.127 41.1105 108.126 41.1234 105.64C41.1319 104.014 41.0749 103.674 40.6362 102.738C39.9218 101.216 38.6214 99.9499 35.7551 97.9876C31.9996 95.4162 30.3956 93.3462 29.9524 90.4993C29.5889 88.1634 30.0107 86.5153 32.0882 82.1542C34.2387 77.64 34.7716 75.7163 35.1321 71.1662C35.3649 68.2263 35.6873 67.067 36.5306 66.1366C37.4101 65.166 38.2018 64.8376 40.3785 64.5396C43.927 64.054 46.1866 63.1346 48.044 61.4204C49.6552 59.9334 50.3295 58.5005 50.433 56.3434L50.5115 54.7085L49.6111 53.6571C46.3504 49.8491 1.03591 0 0.835225 0C0.792374 0 1.86536 1.34707 3.21957 2.99328ZM24.5806 102.039C25.3178 100.732 24.9261 99.0506 23.6929 98.2294C22.5277 97.4534 20.7175 97.819 20.7175 98.8302C20.7175 99.1387 20.8881 99.3634 21.272 99.5614C21.9184 99.8945 21.9654 100.269 21.4568 101.035C20.9416 101.81 20.9832 102.492 21.574 102.956C22.5264 103.702 23.8744 103.292 24.5806 102.039Z" fill="white"/>
<path fill-rule="evenodd" clip-rule="evenodd" d="M52.7504 65.3971C51.0847 65.9096 49.4653 67.6779 48.9639 69.5323C48.6581 70.6634 48.8316 72.6477 49.2898 73.2604C50.0298 74.2502 50.7454 74.511 52.6832 74.4973C56.4768 74.4709 59.7748 72.8412 60.1583 70.8038C60.4728 69.134 59.0242 66.8196 57.029 65.8036C55.9995 65.2794 53.8099 65.0714 52.7504 65.3971ZM57.1854 68.8704C57.7705 68.038 57.5145 67.138 56.5196 66.5295C54.6248 65.3707 51.7592 66.3295 51.7592 68.1225C51.7592 69.0151 53.2534 69.9886 54.6233 69.9886C55.5349 69.9886 56.7825 69.4442 57.1854 68.8704Z" fill="white"/>
</g>
<defs>
<clipPath id="clip0_156_166">
<rect width="117.04" height="159.6" fill="white" transform="translate(0.914062)"/>
</clipPath>
</defs>
</svg>
